HIERARCHY
ROOT Hips
{
	OFFSET 0.000000 100.481300 0.000000
	CHANNELS 6 Xposition Yposition Zposition Xrotation Yrotation Zrotation
	JOINT Spine
	{
		OFFSET -0.279200 12.230698 -2.892100
		CHANNELS 3 Xrotation Yrotation Zrotation
		JOINT Spine1
		{
			OFFSET -0.325700 14.269203 -3.374200
			CHANNELS 3 Xrotation Yrotation Zrotation
			JOINT Spine2
			{
				OFFSET -0.372300 16.307602 -0.352600
				CHANNELS 3 Xrotation Yrotation Zrotation
				JOINT Neck
				{
					OFFSET -0.418800 17.814194 8.416900
					CHANNELS 3 Xrotation Yrotation Zrotation
					JOINT Head
					{
						OFFSET 0.000000 7.031097 3.806800
						CHANNELS 3 Xrotation Yrotation Zrotation
						JOINT HeadTop_End
						{
							OFFSET 0.000000 24.646606 12.978600
							CHANNELS 3 Xrotation Yrotation Zrotation
							End Site
							{
								OFFSET 0.000000 27.854965 0.000000
							}
						}
					}
				}
				JOINT LeftShoulder
				{
					OFFSET 16.952999 14.495407 -7.737500
					CHANNELS 3 Xrotation Yrotation Zrotation
					JOINT LeftArm
					{
						OFFSET 9.308998 -2.777710 0.208600
						CHANNELS 3 Xrotation Yrotation Zrotation
						JOINT LeftForeArm
						{
							OFFSET 29.972298 0.000000 0.000000
							CHANNELS 3 Xrotation Yrotation Zrotation
							JOINT LeftHand
							{
								OFFSET 26.026505 0.000000 0.000000
								CHANNELS 3 Xrotation Yrotation Zrotation
								JOINT LeftHandThumb1
								{
									OFFSET 12.240501 -7.147949 9.207150
									CHANNELS 3 Xrotation Yrotation Zrotation
									JOINT LeftHandThumb2
									{
										OFFSET 4.138618 -2.389435 2.389433
										CHANNELS 3 Xrotation Yrotation Zrotation
										JOINT LeftHandThumb3
										{
											OFFSET 2.726913 -1.574387 1.574386
											CHANNELS 3 Xrotation Yrotation Zrotation
											JOINT LeftHandThumb4
											{
												OFFSET 3.941010 -2.275345 2.275342
												CHANNELS 3 Xrotation Yrotation Zrotation
												End Site
												{
													OFFSET -0.005798 5.087799 0.009903
												}
											}
										}
									}
								}
								JOINT LeftHandIndex1
								{
									OFFSET 24.424698 -1.985611 5.953459
									CHANNELS 3 Xrotation Yrotation Zrotation
									JOINT LeftHandIndex2
									{
										OFFSET 6.426697 0.000000 0.000000
										CHANNELS 3 Xrotation Yrotation Zrotation
										JOINT LeftHandIndex3
										{
											OFFSET 5.337898 0.000000 0.000000
											CHANNELS 3 Xrotation Yrotation Zrotation
											JOINT LeftHandIndex4
											{
												OFFSET 4.409401 0.000000 0.000000
												CHANNELS 3 Xrotation Yrotation Zrotation
												End Site
												{
													OFFSET 0.000000 4.409363 0.014373
												}
											}
										}
									}
								}
								JOINT LeftHandMiddle1
								{
									OFFSET 23.810104 0.000000 0.000000
									CHANNELS 3 Xrotation Yrotation Zrotation
									JOINT LeftHandMiddle2
									{
										OFFSET 7.176498 0.000000 0.000000
										CHANNELS 3 Xrotation Yrotation Zrotation
										JOINT LeftHandMiddle3
										{
											OFFSET 6.774902 0.000000 0.000000
											CHANNELS 3 Xrotation Yrotation Zrotation
											JOINT LeftHandMiddle4
											{
												OFFSET 5.403328 0.000000 0.000000
												CHANNELS 3 Xrotation Yrotation Zrotation
												End Site
												{
													OFFSET -0.027702 5.403244 0.017414
												}
											}
										}
									}
								}
								JOINT LeftHandRing1
								{
									OFFSET 22.908401 -0.839279 -6.020567
									CHANNELS 3 Xrotation Yrotation Zrotation
									JOINT LeftHandRing2
									{
										OFFSET 6.337502 0.000000 0.000000
										CHANNELS 3 Xrotation Yrotation Zrotation
										JOINT LeftHandRing3
										{
											OFFSET 5.779297 0.000000 0.000000
											CHANNELS 3 Xrotation Yrotation Zrotation
											JOINT LeftHandRing4
											{
												OFFSET 4.965698 0.000000 0.000000
												CHANNELS 3 Xrotation Yrotation Zrotation
												End Site
												{
													OFFSET 0.000000 4.965668 0.016186
												}
											}
										}
									}
								}
								JOINT LeftHandPinky1
								{
									OFFSET 20.037003 -1.530319 -10.950146
									CHANNELS 3 Xrotation Yrotation Zrotation
									JOINT LeftHandPinky2
									{
										OFFSET 5.254700 0.000000 0.000000
										CHANNELS 3 Xrotation Yrotation Zrotation
										JOINT LeftHandPinky3
										{
											OFFSET 4.810204 0.000000 0.000000
											CHANNELS 3 Xrotation Yrotation Zrotation
											JOINT LeftHandPinky4
											{
												OFFSET 3.647202 0.000000 0.000000
												CHANNELS 3 Xrotation Yrotation Zrotation
												End Site
												{
													OFFSET 0.000000 3.647186 0.011889
												}
											}
										}
									}
								}
							}
						}
					}
				}
				JOINT RightShoulder
				{
					OFFSET -15.141001 14.495407 -7.737500
					CHANNELS 3 Xrotation Yrotation Zrotation
					JOINT RightArm
					{
						OFFSET -9.308998 -2.777710 0.208500
						CHANNELS 3 Xrotation Yrotation Zrotation
						JOINT RightForeArm
						{
							OFFSET -29.972300 0.000000 0.000000
							CHANNELS 3 Xrotation Yrotation Zrotation
							JOINT RightHand
							{
								OFFSET -26.026505 0.000000 0.000000
								CHANNELS 3 Xrotation Yrotation Zrotation
								JOINT RightHandThumb1
								{
									OFFSET -12.240601 -7.148026 9.207092
									CHANNELS 3 Xrotation Yrotation Zrotation
									JOINT RightHandThumb2
									{
										OFFSET -4.138618 -2.389435 2.389433
										CHANNELS 3 Xrotation Yrotation Zrotation
										JOINT RightHandThumb3
										{
											OFFSET -2.726974 -1.574417 1.574421
											CHANNELS 3 Xrotation Yrotation Zrotation
											JOINT RightHandThumb4
											{
												OFFSET -3.941010 -2.275345 2.275343
												CHANNELS 3 Xrotation Yrotation Zrotation
												End Site
												{
													OFFSET 0.005814 5.087799 0.009927
												}
											}
										}
									}
								}
								JOINT RightHandIndex1
								{
									OFFSET -24.424698 -1.985657 5.953444
									CHANNELS 3 Xrotation Yrotation Zrotation
									JOINT RightHandIndex2
									{
										OFFSET -6.426697 0.000000 0.000000
										CHANNELS 3 Xrotation Yrotation Zrotation
										JOINT RightHandIndex3
										{
											OFFSET -5.337898 0.000000 0.000000
											CHANNELS 3 Xrotation Yrotation Zrotation
											JOINT RightHandIndex4
											{
												OFFSET -4.409401 0.000000 0.000000
												CHANNELS 3 Xrotation Yrotation Zrotation
												End Site
												{
													OFFSET 0.000000 4.409363 0.014408
												}
											}
										}
									}
								}
								JOINT RightHandMiddle1
								{
									OFFSET -23.810097 0.000000 0.000000
									CHANNELS 3 Xrotation Yrotation Zrotation
									JOINT RightHandMiddle2
									{
										OFFSET -7.176498 0.000000 0.000000
										CHANNELS 3 Xrotation Yrotation Zrotation
										JOINT RightHandMiddle3
										{
											OFFSET -6.774902 0.000000 0.000000
											CHANNELS 3 Xrotation Yrotation Zrotation
											JOINT RightHandMiddle4
											{
												OFFSET -5.403328 0.000000 0.000000
												CHANNELS 3 Xrotation Yrotation Zrotation
												End Site
												{
													OFFSET 0.027702 5.403244 0.017457
												}
											}
										}
									}
								}
								JOINT RightHandRing1
								{
									OFFSET -22.908302 -0.839325 -6.020576
									CHANNELS 3 Xrotation Yrotation Zrotation
									JOINT RightHandRing2
									{
										OFFSET -6.337502 0.000000 0.000000
										CHANNELS 3 Xrotation Yrotation Zrotation
										JOINT RightHandRing3
										{
											OFFSET -5.779297 0.000000 0.000000
											CHANNELS 3 Xrotation Yrotation Zrotation
											JOINT RightHandRing4
											{
												OFFSET -4.965698 0.000000 0.000000
												CHANNELS 3 Xrotation Yrotation Zrotation
												End Site
												{
													OFFSET 0.000000 4.965668 0.016226
												}
											}
										}
									}
								}
								JOINT RightHandPinky1
								{
									OFFSET -20.037003 -1.530334 -10.950259
									CHANNELS 3 Xrotation Yrotation Zrotation
									JOINT RightHandPinky2
									{
										OFFSET -5.254700 0.000000 0.000000
										CHANNELS 3 Xrotation Yrotation Zrotation
										JOINT RightHandPinky3
										{
											OFFSET -4.810204 0.000000 0.000000
											CHANNELS 3 Xrotation Yrotation Zrotation
											JOINT RightHandPinky4
											{
												OFFSET -3.647202 0.000000 0.000000
												CHANNELS 3 Xrotation Yrotation Zrotation
												End Site
												{
													OFFSET 0.000000 3.647186 0.011917
												}
											}
										}
									}
								}
							}
						}
					}
				}
			}
		}
	}
	JOINT LeftUpLeg
	{
		OFFSET 15.427100 -6.655098 0.678600
		CHANNELS 3 Xrotation Yrotation Zrotation
		JOINT LeftLeg
		{
			OFFSET 4.081073 -39.591068 13.024000
			CHANNELS 3 Xrotation Yrotation Zrotation
			JOINT LeftFoot
			{
				OFFSET -4.081074 -37.707932 -15.979700
				CHANNELS 3 Xrotation Yrotation Zrotation
				JOINT LeftToeBase
				{
					OFFSET 5.346399 -15.068900 20.645000
					CHANNELS 3 Xrotation Yrotation Zrotation
					JOINT LeftToe_End
					{
						OFFSET 2.754700 0.931300 11.300900
						CHANNELS 3 Xrotation Yrotation Zrotation
						End Site
						{
							OFFSET 0.000000 11.669021 0.000000
						}
					}
				}
			}
		}
	}
	JOINT RightUpLeg
	{
		OFFSET -15.569500 -6.655098 0.678600
		CHANNELS 3 Xrotation Yrotation Zrotation
		JOINT RightLeg
		{
			OFFSET -4.081825 -39.591045 13.023800
			CHANNELS 3 Xrotation Yrotation Zrotation
			JOINT RightFoot
			{
				OFFSET 4.081824 -37.707954 -15.979600
				CHANNELS 3 Xrotation Yrotation Zrotation
				JOINT RightToeBase
				{
					OFFSET -5.346400 -15.068900 20.645000
					CHANNELS 3 Xrotation Yrotation Zrotation
					JOINT RightToe_End
					{
						OFFSET -2.754700 0.931300 11.300900
						CHANNELS 3 Xrotation Yrotation Zrotation
						End Site
						{
							OFFSET 0.000000 11.669021 0.000000
						}
					}
				}
			}
		}
	}
}
MOTION
Frames: 5
Frame Time: 0.033333
6.241053 84.336288 -20.963764 33.856411 -48.595331 22.969948 29.875708 -8.267415 -4.849558 8.729779 -3.028222 -5.168639 8.602371 -3.491104 -5.031369 -0.032200 5.803572 10.463837 -5.511880 43.552623 -23.877769 -0.000006 -0.000001 -0.000003 3.967275 -19.071951 -6.331209 -46.842134 -31.510456 -56.220557 -0.000017 -24.418999 -0.000003 -97.468746 -4.020767 31.276884 15.243823 -12.010835 -1.756538 9.991681 31.405667 3.585308 2.602958 13.223607 4.531970 -0.000000 -0.000002 0.000002 3.438015 5.961398 -59.915314 3.438005 5.961380 -59.915307 0.917572 3.439305 -29.868124 0.000001 -0.000001 -0.000001 3.436330 5.960433 -59.899168 3.439690 5.962348 -59.931447 0.917576 3.439304 -29.868127 -0.000001 -0.000001 -0.000000 3.438015 5.961398 -59.915314 3.438009 5.961384 -59.915307 0.917573 3.439303 -29.868117 -0.000002 -0.000002 0.000001 6.970685 7.996846 -59.834349 3.456220 1.883730 -60.181398 0.917571 3.439300 -29.868117 0.000001 -0.000001 -0.000001 2.430944 3.261224 7.688193 15.843093 20.217107 8.319712 -0.000006 66.889272 0.000007 11.026377 -6.146632 -8.711858 12.566622 -0.051692 -2.567636 12.418961 -25.093990 -8.813306 3.098824 -7.738612 -7.072587 -0.000000 0.000001 -0.000000 2.498112 -5.341516 50.104086 2.498117 -5.341523 50.104120 0.653444 -2.947636 24.993790 -0.000001 0.000000 -0.000001 2.498113 -5.341515 50.104089 2.498116 -5.341526 50.104120 0.653440 -2.947645 24.993795 -0.000002 -0.000000 -0.000001 2.498117 -5.341525 50.104089 2.498129 -5.341516 50.104120 0.653442 -2.947633 24.993786 -0.000003 0.000002 0.000002 2.498112 -5.341516 50.104089 2.498117 -5.341531 50.104116 0.653441 -2.947633 24.993791 0.000001 0.000002 0.000001 -40.639486 28.634349 21.444117 44.129521 6.720247 -2.046150 -25.400364 13.639813 -8.001399 -0.299736 0.000005 -0.000002 0.000000 0.000000 0.000000 -60.367452 -3.785767 4.507972 31.887203 7.762898 -3.079420 7.096151 4.672657 1.615668 -1.259341 0.000032 0.000003 -0.000000 0.000002 -0.000000 
6.137342 84.944618 -20.814632 31.165791 -48.395865 21.247615 29.425408 -8.436943 -4.985443 8.743230 -3.092194 -5.203847 8.614931 -3.533106 -5.079195 -0.113461 5.848245 10.458336 -5.080499 43.655519 -24.147464 -0.000000 0.000001 -0.000001 3.941646 -18.861134 -6.033653 -45.292217 -30.294891 -57.900354 -0.000020 -26.672620 -0.000010 -94.970024 -4.083326 32.576949 15.243823 -12.010832 -1.756539 9.991681 31.405664 3.585308 2.602963 13.223604 4.531969 0.000001 -0.000001 0.000002 3.438015 5.961398 -59.915314 3.438006 5.961380 -59.915300 0.917572 3.439304 -29.868124 -0.000000 -0.000000 0.000002 3.436330 5.960433 -59.899168 3.439686 5.962349 -59.931440 0.917574 3.439305 -29.868130 -0.000002 0.000002 -0.000002 3.438015 5.961398 -59.915321 3.438008 5.961384 -59.915307 0.917574 3.439302 -29.868117 0.000002 -0.000000 -0.000002 6.970685 7.996846 -59.834349 3.456222 1.883728 -60.181398 0.917575 3.439300 -29.868117 -0.000000 -0.000002 -0.000003 2.403079 3.207054 7.543120 16.603869 17.208219 9.251250 -0.000056 68.900250 0.000054 12.295702 -6.276969 -8.987078 12.566629 -0.051688 -2.567637 12.418962 -25.093995 -8.813306 3.098822 -7.738617 -7.072586 0.000000 -0.000000 0.000001 2.498119 -5.341515 50.104086 2.498124 -5.341523 50.104120 0.653442 -2.947635 24.993791 0.000005 0.000002 -0.000000 2.498119 -5.341515 50.104089 2.498122 -5.341522 50.104120 0.653445 -2.947643 24.993793 -0.000002 -0.000003 -0.000001 2.498124 -5.341529 50.104086 2.498124 -5.341512 50.104116 0.653443 -2.947635 24.993793 -0.000000 0.000001 0.000001 2.498119 -5.341515 50.104089 2.498121 -5.341526 50.104120 0.653440 -2.947632 24.993791 -0.000002 0.000000 -0.000001 -37.970350 28.827578 20.020744 42.640669 6.736479 -1.633360 -24.743214 13.559013 -7.933613 -0.294906 0.000000 0.000009 -0.000000 0.000000 0.000000 -58.084673 -3.253479 3.891525 31.483614 7.769941 -3.255878 6.683300 4.022104 1.976887 -1.376695 -0.000021 -0.000001 0.000000 -0.000000 0.000000 
6.023764 85.537155 -20.654961 28.800422 -48.127490 19.621037 28.743372 -8.580328 -5.067018 8.680971 -3.166776 -5.147885 8.554190 -3.573214 -5.038152 -0.040999 5.893288 10.271341 -4.772107 43.601254 -24.328249 -0.000002 0.000000 0.000001 3.885237 -18.513421 -5.915019 -43.458632 -28.201819 -59.961486 0.000015 -29.934486 0.000015 -90.100782 -2.913241 34.616703 15.243823 -12.010830 -1.756539 9.991678 31.405664 3.585308 2.602960 13.223603 4.531969 -0.000002 0.000005 -0.000000 3.438015 5.961397 -59.915314 3.438007 5.961379 -59.915307 0.917571 3.439304 -29.868120 0.000000 -0.000001 0.000001 3.436330 5.960435 -59.899168 3.439689 5.962349 -59.931447 0.917579 3.439304 -29.868124 -0.000000 -0.000001 -0.000000 3.438015 5.961397 -59.915314 3.438007 5.961383 -59.915307 0.917568 3.439302 -29.868113 0.000003 -0.000000 0.000002 6.970685 7.996848 -59.834349 3.456222 1.883729 -60.181398 0.917576 3.439302 -29.868124 0.000000 0.000001 -0.000004 2.341023 3.125639 7.366596 17.816245 14.240882 9.939301 0.000008 70.666995 -0.000008 13.525894 -6.361067 -9.263072 12.566626 -0.051688 -2.567634 12.418961 -25.094001 -8.813306 3.098825 -7.738613 -7.072587 -0.000000 -0.000002 -0.000000 2.498113 -5.341518 50.104092 2.498120 -5.341525 50.104113 0.653440 -2.947633 24.993793 0.000000 -0.000001 0.000002 2.498114 -5.341517 50.104089 2.498121 -5.341524 50.104120 0.653445 -2.947645 24.993795 0.000003 0.000001 0.000001 2.498119 -5.341525 50.104089 2.498123 -5.341511 50.104120 0.653438 -2.947636 24.993793 0.000002 0.000002 0.000000 2.498113 -5.341517 50.104089 2.498125 -5.341529 50.104116 0.653438 -2.947634 24.993791 0.000003 -0.000001 -0.000002 -35.518650 28.691869 18.900194 41.230034 6.758285 -1.526140 -24.132353 13.462799 -7.790589 -0.293631 0.000004 -0.000003 0.000000 -0.000000 -0.000000 -55.907824 -2.841438 3.448965 30.971961 7.778812 -3.465229 6.321878 3.312142 2.346213 -1.429029 0.000022 0.000002 -0.000000 -0.000000 0.000000 
5.885771 86.103859 -20.474527 26.658163 -47.780148 18.035668 27.844560 -8.745524 -5.107561 8.553721 -3.266351 -5.022761 8.429568 -3.629971 -4.930015 0.089828 5.968552 9.987219 -4.299251 43.601018 -24.542427 -0.000000 0.000001 -0.000001 3.787144 -17.966698 -6.016248 -40.943460 -26.016793 -61.922761 -0.000013 -33.989945 0.000011 -85.011765 -0.478775 36.832109 15.243823 -12.010832 -1.756539 9.991681 31.405661 3.585309 2.602959 13.223608 4.531967 -0.000002 -0.000000 -0.000000 3.438015 5.961397 -59.915314 3.438006 5.961380 -59.915307 0.917572 3.439302 -29.868124 0.000002 -0.000001 -0.000002 3.436330 5.960431 -59.899174 3.439685 5.962349 -59.931447 0.917574 3.439305 -29.868120 -0.000002 0.000001 -0.000002 3.438015 5.961397 -59.915314 3.438007 5.961382 -59.915307 0.917573 3.439302 -29.868117 0.000001 0.000001 -0.000002 6.970686 7.996851 -59.834349 3.456221 1.883732 -60.181398 0.917576 3.439300 -29.868113 0.000001 0.000000 -0.000001 2.266188 3.060182 7.140188 19.583477 11.572844 10.376537 0.000037 71.890849 -0.000069 14.272364 -6.521698 -9.579596 12.566625 -0.051690 -2.567635 12.418960 -25.093995 -8.813303 3.098823 -7.738609 -7.072586 -0.000001 0.000001 -0.000000 2.498115 -5.341518 50.104089 2.498119 -5.341526 50.104123 0.653442 -2.947635 24.993790 0.000002 0.000001 0.000003 2.498115 -5.341517 50.104089 2.498117 -5.341529 50.104120 0.653437 -2.947645 24.993793 -0.000002 -0.000001 -0.000000 2.498118 -5.341530 50.104089 2.498127 -5.341513 50.104123 0.653439 -2.947638 24.993788 0.000003 -0.000003 -0.000002 2.498115 -5.341518 50.104089 2.498123 -5.341532 50.104116 0.653436 -2.947633 24.993793 0.000005 -0.000002 -0.000001 -33.218567 28.238142 18.019402 39.901815 6.824122 -1.641222 -23.570831 13.361154 -7.645297 -0.299798 -0.000005 0.000006 0.000000 -0.000000 -0.000000 -53.805416 -2.605913 3.115467 30.422533 7.790404 -3.703349 5.965157 2.619204 2.695788 -1.449520 -0.000003 -0.000000 0.000000 -0.000003 -0.000000 
5.708570 86.665207 -20.239157 24.411086 -47.244528 16.423101 26.883254 -9.027959 -5.122938 8.389410 -3.410392 -4.887098 8.266499 -3.731681 -4.811221 0.156383 6.058483 9.713571 -3.507008 43.642569 -24.756371 0.000000 -0.000000 0.000000 3.669297 -17.291623 -6.160880 -37.468085 -24.750628 -63.222915 0.000002 -38.485807 0.000005 -81.945461 2.082974 38.592222 15.243825 -12.010830 -1.756539 9.991681 31.405667 3.585309 2.602964 13.223611 4.531970 -0.000002 -0.000001 -0.000003 3.438015 5.961398 -59.915314 3.438006 5.961382 -59.915307 0.917572 3.439304 -29.868127 0.000002 -0.000001 0.000001 3.436330 5.960435 -59.899168 3.439689 5.962346 -59.931447 0.917578 3.439304 -29.868124 -0.000001 -0.000002 0.000001 3.438015 5.961398 -59.915314 3.438004 5.961383 -59.915307 0.917573 3.439302 -29.868117 -0.000000 0.000001 -0.000001 6.970685 7.996850 -59.834342 3.456224 1.883733 -60.181398 0.917572 3.439301 -29.868120 -0.000001 0.000002 -0.000004 2.198701 3.024931 6.839564 21.807916 9.284893 10.759960 0.000006 72.499425 -0.000022 14.542110 -6.789836 -9.932756 12.566625 -0.051689 -2.567638 12.418959 -25.093997 -8.813307 3.098824 -7.738614 -7.072586 -0.000000 0.000000 0.000000 2.498111 -5.341514 50.104089 2.498120 -5.341523 50.104120 0.653440 -2.947638 24.993786 0.000002 0.000003 0.000002 2.498114 -5.341514 50.104092 2.498120 -5.341527 50.104123 0.653441 -2.947642 24.993795 0.000002 -0.000003 -0.000001 2.498115 -5.341527 50.104089 2.498127 -5.341517 50.104120 0.653440 -2.947638 24.993790 0.000001 0.000003 0.000001 2.498113 -5.341515 50.104092 2.498124 -5.341532 50.104120 0.653440 -2.947635 24.993790 0.000004 -0.000001 -0.000001 -30.788065 27.689160 16.955294 38.523380 6.966454 -1.610908 -22.990944 13.255331 -7.602550 -0.307128 0.000001 -0.000001 0.000000 -0.000000 0.000000 -51.635605 -2.656252 2.553438 29.980716 7.804969 -3.931715 5.487692 2.123659 2.972088 -1.505836 -0.000000 -0.000003 -0.000000 0.000003 0.000000 
